<mxfile host="app.diagrams.net" modified="2023-05-08T06:27:03.645Z" agent="Mozilla/5.0 (Windows NT 10.0; Win64; x64) AppleWebKit/537.36 (KHTML, like Gecko) Chrome/112.0.0.0 Safari/537.36" etag="jO0tlL_6SC54Kg6QPOKq" version="21.2.2" type="github">
  <diagram name="第 1 页" id="Xca4t9n4aZGngx8q6Jo6">
    <mxGraphModel dx="966" dy="600" grid="1" gridSize="10" guides="1" tooltips="1" connect="1" arrows="1" fold="1" page="1" pageScale="1" pageWidth="827" pageHeight="1169" math="0" shadow="0">
      <root>
        <mxCell id="0" />
        <mxCell id="1" parent="0" />
        <mxCell id="vkd8hjWte1cUT5eUdOwT-1" value="oidc-service" style="rounded=1;whiteSpace=wrap;html=1;" vertex="1" parent="1">
          <mxGeometry x="500" y="360" width="120" height="60" as="geometry" />
        </mxCell>
        <mxCell id="vkd8hjWte1cUT5eUdOwT-2" style="edgeStyle=orthogonalEdgeStyle;rounded=0;orthogonalLoop=1;jettySize=auto;html=1;" edge="1" parent="1" source="vkd8hjWte1cUT5eUdOwT-3">
          <mxGeometry relative="1" as="geometry">
            <mxPoint x="844.9999999999998" y="962.5" as="targetPoint" />
          </mxGeometry>
        </mxCell>
        <mxCell id="vkd8hjWte1cUT5eUdOwT-3" value="用友BIP" style="swimlane;whiteSpace=wrap;html=1;dashed=1;" vertex="1" parent="1">
          <mxGeometry x="730" y="260" width="230" height="260" as="geometry" />
        </mxCell>
        <mxCell id="vkd8hjWte1cUT5eUdOwT-4" value="login-service" style="rounded=1;whiteSpace=wrap;html=1;" vertex="1" parent="vkd8hjWte1cUT5eUdOwT-3">
          <mxGeometry x="55" y="50" width="120" height="60" as="geometry" />
        </mxCell>
        <mxCell id="vkd8hjWte1cUT5eUdOwT-5" value="user-info-service" style="rounded=1;whiteSpace=wrap;html=1;" vertex="1" parent="vkd8hjWte1cUT5eUdOwT-3">
          <mxGeometry x="55" y="130" width="120" height="60" as="geometry" />
        </mxCell>
        <mxCell id="vkd8hjWte1cUT5eUdOwT-6" value="app-authory-db" style="shape=cylinder3;whiteSpace=wrap;html=1;boundedLbl=1;backgroundOutline=1;size=15;" vertex="1" parent="1">
          <mxGeometry x="290" y="90" width="70" height="80" as="geometry" />
        </mxCell>
        <mxCell id="vkd8hjWte1cUT5eUdOwT-7" style="edgeStyle=orthogonalEdgeStyle;rounded=0;orthogonalLoop=1;jettySize=auto;html=1;" edge="1" parent="1" source="vkd8hjWte1cUT5eUdOwT-8">
          <mxGeometry relative="1" as="geometry">
            <mxPoint x="300" y="921" as="targetPoint" />
          </mxGeometry>
        </mxCell>
        <mxCell id="vkd8hjWte1cUT5eUdOwT-8" value="业务系统" style="swimlane;whiteSpace=wrap;html=1;" vertex="1" parent="1">
          <mxGeometry x="200" y="280" width="200" height="200" as="geometry" />
        </mxCell>
        <mxCell id="vkd8hjWte1cUT5eUdOwT-9" value="PMS" style="rounded=0;whiteSpace=wrap;html=1;" vertex="1" parent="vkd8hjWte1cUT5eUdOwT-8">
          <mxGeometry x="40" y="40" width="120" height="60" as="geometry" />
        </mxCell>
        <mxCell id="vkd8hjWte1cUT5eUdOwT-10" value="工业互联" style="rounded=0;whiteSpace=wrap;html=1;" vertex="1" parent="vkd8hjWte1cUT5eUdOwT-8">
          <mxGeometry x="40" y="110" width="120" height="60" as="geometry" />
        </mxCell>
        <mxCell id="vkd8hjWte1cUT5eUdOwT-11" value="" style="verticalLabelPosition=bottom;html=1;verticalAlign=top;strokeWidth=1;align=center;outlineConnect=0;dashed=0;outlineConnect=0;shape=mxgraph.aws3d.mobile_worker;aspect=fixed;strokeColor=none;fillColor=#777777;" vertex="1" parent="1">
          <mxGeometry x="10" y="650" width="40" height="100" as="geometry" />
        </mxCell>
        <mxCell id="vkd8hjWte1cUT5eUdOwT-12" value="登录" style="html=1;verticalAlign=bottom;startArrow=oval;endArrow=block;startSize=8;edgeStyle=elbowEdgeStyle;elbow=vertical;curved=0;rounded=0;" edge="1" parent="1">
          <mxGeometry relative="1" as="geometry">
            <mxPoint x="80" y="630" as="sourcePoint" />
            <mxPoint x="555" y="630.2" as="targetPoint" />
          </mxGeometry>
        </mxCell>
        <mxCell id="vkd8hjWte1cUT5eUdOwT-13" value="" style="rounded=0;orthogonalLoop=1;jettySize=auto;html=1;" edge="1" parent="1" source="vkd8hjWte1cUT5eUdOwT-1">
          <mxGeometry relative="1" as="geometry">
            <mxPoint x="560" y="891.6" as="targetPoint" />
            <mxPoint x="560" y="420" as="sourcePoint" />
          </mxGeometry>
        </mxCell>
        <mxCell id="vkd8hjWte1cUT5eUdOwT-14" value="" style="html=1;points=[];perimeter=orthogonalPerimeter;outlineConnect=0;targetShapes=umlLifeline;portConstraint=eastwest;newEdgeStyle={&quot;edgeStyle&quot;:&quot;elbowEdgeStyle&quot;,&quot;elbow&quot;:&quot;vertical&quot;,&quot;curved&quot;:0,&quot;rounded&quot;:0};" vertex="1" parent="1">
          <mxGeometry x="840" y="650" width="10" height="80" as="geometry" />
        </mxCell>
        <mxCell id="vkd8hjWte1cUT5eUdOwT-15" value="用户密码校验" style="html=1;verticalAlign=bottom;endArrow=block;edgeStyle=elbowEdgeStyle;elbow=vertical;curved=0;rounded=0;" edge="1" parent="1" target="vkd8hjWte1cUT5eUdOwT-14">
          <mxGeometry x="0.4694" relative="1" as="geometry">
            <mxPoint x="770" y="650" as="sourcePoint" />
            <Array as="points">
              <mxPoint x="560" y="650" />
            </Array>
            <mxPoint as="offset" />
          </mxGeometry>
        </mxCell>
        <mxCell id="vkd8hjWte1cUT5eUdOwT-16" value="success" style="html=1;verticalAlign=bottom;endArrow=open;dashed=1;endSize=8;edgeStyle=elbowEdgeStyle;elbow=vertical;curved=0;rounded=0;" edge="1" parent="1" source="vkd8hjWte1cUT5eUdOwT-14">
          <mxGeometry relative="1" as="geometry">
            <mxPoint x="560" y="690" as="targetPoint" />
            <Array as="points">
              <mxPoint x="690" y="690" />
            </Array>
          </mxGeometry>
        </mxCell>
        <mxCell id="vkd8hjWte1cUT5eUdOwT-17" value="生成code" style="html=1;align=left;spacingLeft=2;endArrow=block;rounded=0;edgeStyle=orthogonalEdgeStyle;curved=0;rounded=0;" edge="1" parent="1">
          <mxGeometry relative="1" as="geometry">
            <mxPoint x="560" y="720" as="sourcePoint" />
            <Array as="points">
              <mxPoint x="630" y="720" />
              <mxPoint x="630" y="740" />
            </Array>
            <mxPoint x="560" y="740" as="targetPoint" />
          </mxGeometry>
        </mxCell>
      </root>
    </mxGraphModel>
  </diagram>
</mxfile>
